<svg width="14" height="14" viewBox="0 0 14 14" fill="none" xmlns="http://www.w3.org/2000/svg">
<path fill-rule="evenodd" clip-rule="evenodd" d="M9.33317 0.583344C9.65534 0.583344 9.9165 0.844511 9.9165 1.16668V1.75096C10.1939 1.75287 10.4363 1.75859 10.6467 1.77579C10.9746 1.80258 11.276 1.86008 11.5591 2.00433C11.9982 2.22803 12.3551 2.58499 12.5789 3.02403C12.7231 3.30715 12.7806 3.60856 12.8074 3.93645C12.8332 4.25214 12.8332 4.63968 12.8332 5.10924V10.0575C12.8332 10.527 12.8332 10.9145 12.8074 11.2302C12.7806 11.5581 12.7231 11.8595 12.5789 12.1427C12.3551 12.5817 11.9982 12.9387 11.5591 13.1624C11.276 13.3066 10.9746 13.3641 10.6467 13.3909C10.331 13.4167 9.9435 13.4167 9.47394 13.4167H4.52573C4.05617 13.4167 3.66863 13.4167 3.35294 13.3909C3.02505 13.3641 2.72364 13.3066 2.44053 13.1624C2.00148 12.9387 1.64453 12.5817 1.42082 12.1427C1.27657 11.8595 1.21907 11.5581 1.19228 11.2302C1.16649 10.9145 1.1665 10.527 1.1665 10.0574V5.10925C1.1665 4.63969 1.16649 4.25214 1.19228 3.93645C1.21907 3.60856 1.27657 3.30715 1.42082 3.02403C1.64453 2.58499 2.00148 2.22803 2.44053 2.00433C2.72364 1.86008 3.02505 1.80258 3.35294 1.77579C3.56341 1.75859 3.80582 1.75287 4.08317 1.75096V1.16668C4.08317 0.844511 4.34434 0.583344 4.6665 0.583344C4.98867 0.583344 5.24984 0.844511 5.24984 1.16668V1.75001H8.74984V1.16668C8.74984 0.844511 9.011 0.583344 9.33317 0.583344ZM4.08317 2.91771V3.50001C4.08317 3.82218 4.34434 4.08334 4.6665 4.08334C4.98867 4.08334 5.24984 3.82218 5.24984 3.50001V2.91668H8.74984V3.50001C8.74984 3.82218 9.011 4.08334 9.33317 4.08334C9.65534 4.08334 9.9165 3.82218 9.9165 3.50001V2.91771C10.1764 2.91953 10.3805 2.92459 10.5517 2.93858C10.8075 2.95948 10.9383 2.99735 11.0295 3.04384C11.249 3.15569 11.4275 3.33417 11.5393 3.55369C11.5858 3.64492 11.6237 3.77571 11.6446 4.03145C11.666 4.294 11.6665 4.63367 11.6665 5.13334V5.25001H2.33317V5.13334C2.33317 4.63367 2.33363 4.294 2.35508 4.03145C2.37597 3.77571 2.41384 3.64492 2.46033 3.55369C2.57218 3.33417 2.75066 3.15569 2.97018 3.04384C3.06142 2.99735 3.1922 2.95948 3.44794 2.93858C3.6192 2.92459 3.82328 2.91953 4.08317 2.91771ZM2.33317 6.41668H11.6665V10.0333C11.6665 10.533 11.666 10.8727 11.6446 11.1352C11.6237 11.391 11.5858 11.5218 11.5393 11.613C11.4275 11.8325 11.249 12.011 11.0295 12.1229C10.9383 12.1693 10.8075 12.2072 10.5517 12.2281C10.2892 12.2496 9.94951 12.25 9.44984 12.25H4.54984C4.05017 12.25 3.7105 12.2496 3.44794 12.2281C3.1922 12.2072 3.06142 12.1693 2.97018 12.1229C2.75066 12.011 2.57218 11.8325 2.46033 11.613C2.41384 11.5218 2.37597 11.391 2.35508 11.1352C2.33363 10.8727 2.33317 10.533 2.33317 10.0333V6.41668Z" fill="currentColor" fill-opacity="0.54"/>
</svg>
